/* XPM */
static char * floor1_xpm[] = {
"64 64 63 1",
" 	c #121E15",
".	c #121F15",
"+	c #132215",
"@	c #142416",
"#	c #142216",
"$	c #142015",
"%	c #142115",
"&	c #152216",
"*	c #162417",
"=	c #132115",
"-	c #142316",
";	c #142215",
">	c #152217",
",	c #132015",
"'	c #131F15",
")	c #132316",
"!	c #132317",
"~	c #142017",
"{	c #142016",
"]	c #152316",
"^	c #101D14",
"/	c #0F1C14",
"(	c #111D15",
"_	c #122015",
":	c #152317",
"<	c #132216",
"[	c #172518",
"}	c #152116",
"|	c #162317",
"1	c #142117",
"2	c #142116",
"3	c #122014",
"4	c #142014",
"5	c #152417",
"6	c #172418",
"7	c #132016",
"8	c #121F14",
"9	c #142217",
"0	c #162517",
"a	c #132014",
"b	c #132116",
"c	c #111E15",
"d	c #142317",
"e	c #152516",
"f	c #141F15",
"g	c #152517",
"h	c #152416",
"i	c #111E14",
"j	c #111D14",
"k	c #121E16",
"l	c #142417",
"m	c #131F16",
"n	c #122115",
"o	c #122116",
"p	c #101C14",
"q	c #152218",
"r	c #122114",
"s	c #131E15",
"t	c #132417",
"u	c #162516",
"v	c #132117",
"w	c #121F16",
"x	c #132017",
"               .+@@#$%%&*$$$%%$=%-===$$$$#@;$%%$$&>.=$==,.,    .",
"  ,    '       ,-@)=+--%-=$%@@-$$!%==$$$~{-@-*]%;#%,$===,    , ,",
"         ^/(   _]:$%%%+-=%==@-%$$-%=$=$-<=:[&$#@;%,.=,', .=,   =",
"               ,%%$&:,'$}|===%-=$%=..--@@12%==%%%]:,  ., .$$,$,=",
"  ,,           _]],,%=$$$%,.3=%=4-====%%%-%;55+==##     .,$,.,. ",
"  ..      ,=.  '##$%#%-#$$$==$$=%62-=.,$#;$-@@@--@< ''.7~,      ",
"     8   ,=.   '%#;$;#9@#$$$$$$$-&*0%,$$%$$$-@@##@<   .={,      ",
"     , ,. .     =5:$%={%;--$%-$a+-&6#=--=' '%%-@b,=,_ .==,   ,' ",
",      ,.  ((  .=91===$$=%%--@=,=+=}%-@@%$';-%b2$%;$=_.===, ^=' ",
".      .   c   '&>$=<<$$=$=%+-%$$-*--;+%$$;55;<-%;-$,.,,.=. c.  ",
"       ,. ..   ':|,b9-$==$===%$$$@5#+$$#-%%>d@;]]$%,..,.,.     ,",
"^^     ,. .    '||==2;;=====$==)-9<$===%--%##%%2&-;,  ..,  ,,  =",
"(/^   ,.       '#2,==%%=====$==<+{=$$===%--5&',,&0]=,. .,  .=',=",
".((  ,.        .,,,===$$%-;,',:%-:-#%$==$e]&}f,=#g#.,,.,,  ,.'..",
"=  . .  ..    (('$,=+-;$%@@;',5%@[@@-=$$$h@%$$==;g: ',.$,..=_ . ",
"ij =. .,,   ..(k9*|:)l:%-g@@#1@#9[#;;-###5]%;#%&]5*_'',${',== =,",
"((..  .,  ...,.md5|>no2,b#bb#2<bm&$$==bb#]{'=<=#b=#==,,'{,,$=,=,",
"  .       .. ..._''.((      .,.  .',,.   '  ...,i^,====,$. ,,=,.",
"                ..  ..      ..      .,  (c      (c,=====$ ., . ,",
" (  .       ..  ..  .,.     ,,      _            .,=====,'','' .",
" ^  ,       ,'       ..   (              .     .. ,$=={$=$,8'$'=",
"            ''            i.  (          ..      .,==7{==$,  =,=",
"'.    c   c(  .       .   ,,  ^                   ,=,,=,=$,  = =",
"',    ^   (^(.,.     ._        c  c              .=,,,,'=$='.,.=",
".            ..       ..       ^  ^      .      ((.. 'b,3=,$=$==",
",      .             .,,                 ,.         .7~,'=.,,,,=",
"       ,.           (^                   ,.       ., '$=,==. . ,",
"  ^,          ..                 ^               .,'$$=,.$=,.=..",
" .,,  ,.                                          '==,=,'==  ===",
" ,              ((          ,        ^c      ((  .,,,  '$$, .==$",
"                  ..                      ,.  ((((',',.=$,.==.==",
"             j(    (^                      ^(     '$$'.=,..$==..",
"                                         ,.       ,--,.====,.=,$",
"              ((                   ,  ,.          '$%=====$$$=. ",
"                           ^                    ((',   .==$$==, ",
",             .. ..     .,          ^pc'          .=,., .===$== ",
"   ,,                                c        ..  .=a,=,,$==$=$$",
"   ..  ,.   .,.             $'           ,,.       .=======.==$,",
"       .   ^c.               j            ,.       '%==,.=. .==.",
"         ,.^(  ((..          c    ,       cc ..  (c,===$,''  =. ",
"  ,      . c      .               .     ,.c ..,,. .=,.'$,,$,,.,,",
"  ,             .. .,'  c^              .   .  . .===,,==='=. ..",
"  ,             ..  '    (          ,             ...,===, .   ,",
" ,.  ' _.    ((             ,   ,   .      .... .....,==,.  ,,,=",
" .   ,..     (c             .   .        ..,.,=....=,==''. ,$%==",
"    ..                                   . .,==,.,,==,. _.,=$'..",
"   ..                .,.      .  _,  ., ..  ...._,,,,$_,,,==$'  ",
"   .              c( .,. (    .  .,  .,,,.      ._,,''%,,=====, ",
"   .   (     ..   c(     ( .        .  .         .===,$$_,====, ",
" ''=,. (   .',.         .. '        ..           .,=,,==, ,,=, .",
" ',,==.   .,.          .,. (   ..    .     .     ..,'.==,   =$ ,",
",...,=.,''=,.',,..''''. '  i ..==...       ,,''. .,','==+,''+%''",
"5;==$$'##%-%||#;'.,$,%,   .,.==$====.   .  ,,,%,.,,,=%#;@#$%-#=$",
"*-%$%=$$-@+$|[&$'....,'. ..='=,,=,=='  .,. ...,,==$%=>*;-$$=$$%=",
"===$#%=$#-+%&]%$$,,   .,.===$,  = $$'' ,._..   ,=_,#:q|-#===$=-%",
"{+,$~$===+-;$$%;..,     '$=,, . = '  ,.   .,. .,.'%][:{~$++$$=%h",
"~<r===${=-%$==&]..,  ...==,. ., , .   ,'. ,. .=, ';5:={1%--$%&@*",
"$'===$=~#%$$#<==..=..,===,.,.=, ..,.  ,=,s    ,,.,;-+-%-#$$%@0-%",
"%%$=$==$$%%%%=;;'',  ..,., .,=. ==.,  ,,. ..,.,, .+-&-%%$$2---==",
"t@+==-2==*5*]%%%''' .====,.,.=, ,,...,.  ,===,_,' '&u@@-$bv$%=.=",
"@@@%$$*2$|&|5@5]'','=,$==,.==,  ..,===. ,=.,=='  wx%;5*-+@-=-$$%",
"%1-%$$-+-%-;)#%2{'.,'.,',  $,.  ==. ,.,==.,=,$'  .=$;-%-+h*$%$1-",
"-==$$-%$$=-%=,$=, '' '$$,   .,=$==   ,.,=.    '. ';@@-$%+@-%@h[[",
"=%$~{-=$=$$=',$==.   .,.='    $==.  ,. ,.   ,. ..=@@-$$%-=%@[[[["};
