/* XPM */
static char *_6ae3f5ead3444f7fb1118cd8dc917b5CX7tvKd8qrABfBJX[] = {
/* columns rows colors chars-per-pixel */
"64 64 157 2 ",
"   c #121F15",
".  c #3D1F15",
"X  c #142116",
"o  c #121F26",
"O  c #132027",
"+  c #182227",
"@  c #142229",
"#  c #1C252A",
"$  c #1E2A2F",
"%  c #212A2E",
"&  c #222C30",
"*  c #2B3236",
"=  c #2A3437",
"-  c #26333D",
";  c #333B3D",
":  c #441D13",
">  c #452115",
",  c #642A1C",
"<  c #462E24",
"1  c #5D3429",
"2  c #2C3843",
"3  c #2F3A48",
"4  c #343F46",
"5  c #313F4B",
"6  c #3A4142",
"7  c #3B4548",
"8  c #3E474B",
"9  c #354351",
"0  c #384755",
"q  c #3E4A54",
"w  c #444644",
"e  c #4B4843",
"r  c #414748",
"t  c #444C4D",
"y  c #4A4E4E",
"u  c #5B504A",
"i  c #424E52",
"p  c #4B4F51",
"a  c #424C5D",
"s  c #425056",
"d  c #4D5153",
"f  c #465459",
"g  c #525656",
"h  c #555858",
"j  c #5B5E5E",
"k  c #605A57",
"l  c #4D5B63",
"z  c #515E66",
"x  c #506067",
"c  c #5D6160",
"v  c #57636C",
"b  c #58646C",
"n  c #636664",
"m  c #666967",
"M  c #666A68",
"N  c #696C6B",
"B  c #6E706E",
"V  c #6F7272",
"C  c #67757D",
"Z  c #727474",
"A  c #767975",
"S  c #777979",
"D  c #7B7D7C",
"F  c #8F2716",
"G  c #8F2817",
"H  c #842B1D",
"J  c #8E2B1A",
"K  c #902716",
"L  c #912817",
"P  c #912A19",
"I  c #9E2C19",
"U  c #8F301E",
"Y  c #90301F",
"T  c #A02E1B",
"R  c #922E21",
"E  c #953225",
"W  c #953629",
"Q  c #99362A",
"!  c #98372B",
"~  c #973D31",
"^  c #983D34",
"/  c #88443B",
"(  c #94463B",
")  c #95483D",
"_  c #AB4C37",
"`  c #B55139",
"'  c #954B41",
"]  c #984F47",
"[  c #975147",
"{  c #9B544C",
"}  c #985751",
"|  c #A8645E",
" . c #B57D73",
".. c #D67859",
"X. c #D87C5D",
"o. c #7E817E",
"O. c #80827F",
"+. c #B78179",
"@. c #B8817A",
"#. c #EE8E6B",
"$. c #EE916D",
"%. c #F0936F",
"&. c #EF9370",
"*. c #F09572",
"=. c #6D7B82",
"-. c #7F8180",
";. c #758389",
":. c #78858C",
">. c #838583",
",. c #878986",
"<. c #8B8C89",
"1. c #8F908C",
"2. c #90938E",
"3. c #818F94",
"4. c #839096",
"5. c #939591",
"6. c #979896",
"7. c #999B96",
"8. c #9C9D9A",
"9. c #9FA09E",
"0. c #A1A29E",
"q. c #A4A5A2",
"w. c #A7A8A5",
"e. c #A9AAA6",
"r. c #ACADA9",
"t. c #AFB0AC",
"y. c #B1B2AC",
"u. c #B6B7B2",
"i. c #B7B8B3",
"p. c #BABBB6",
"a. c #BDBEB9",
"s. c #BFC0BB",
"d. c #C1C2BD",
"f. c #C6C6C1",
"g. c #CCCCC5",
"h. c #CDCDC8",
"j. c #D3D3CC",
"k. c #D7D7D0",
"l. c #DBDBD5",
"z. c #DFDFD9",
"x. c #EADED5",
"c. c #EBE0D7",
"v. c #E3E3DC",
"b. c #ECE1DA",
"n. c #E7E7E0",
"m. c #E7E8E1",
"M. c #E9E9E1",
"N. c #EDEDE6",
"B. c #EFEFE9",
"V. c #F0EFE7",
"C. c #F2F2EA",
"Z. c #F5F5EC",
"A. c #F8F7EF",
"S. c #F8F8EF",
"D. c #FAFAF2",
"F. c #FEFDF4",
"G. c #FEFEF6",
/* pixels */
"    X X X X X   X X X X X     X X X X       X X X X X     X X X X X X X X X       X X X X X   X X X X X X X X X   X X X     X X ",
"    X X X X     X X X X X     X X X X       X X X X X     X X X X X X X X X       X X X X       X X X X X X X X     X X     X X ",
"X       X X X X         X X X X X       X X X     X X         X X     X X X X X   X X X X X X   X X X X   X X X X X     X X X X ",
"  X     X X X       X X X X X X X       X X X   X X X         X X     X X X X X   X X X X X X X X X X X   X X X X X     X X X X ",
"X X X X X   X X     X X X X X   X X X X X X X         X X X X X X X X     X X     X X X X X X X X X X X         X X X X X X X X ",
"X X X X X   X X X X X X X X X   X X X X X X X         X X X X X X X X       X     X X X     X X X X X X         X X X X X X X X ",
"    X X X   X X X X X   X X X X X X   X X X X X X     X X     X     X X X X X X   X X X X X           X X X     X X X X X X X   ",
"    X X X X X X X X X   X X X X X       X X X X X X X X X             X X X X X     X X X             X X X     X X X X X X     ",
"            X X X X X     X X X         X X X         X X X X                 X X         X X X     X X X X X X X X     X X     ",
"            X X X X X             X       X X       X X X X X     X X         X X X       X X X       X X X X X X X     X X     ",
"X X X X X X     X X X X X   X X X X X           X X X X X X       X X X X X X X   X X X X X X X X X     X X X X X X         X X ",
"X X X X X X . : : : : > : : : > > > > : : : : : : > > : : : : : : : : > > > > : : : > : : > > > > : : : : : : : > <       X X X ",
"X X X X X X P I I I I I I I I I I I I I I I I I I I I I I I I I I I I I I I I I I I I I I I I I I I I I I I I I I P       X X X ",
"X X X X 1 , _ ` @.@.@.@.+.@.+.@.+.+.@.@.+.+.+.+.+.+.+.+.+.@.+.@.+.+.+.@.+.@.+.+.+.+.@.+.+.+.+.+.+.@.+.+.+.+.+.@.@. ., 1 X X     ",
"      X ( I ..#.G.G.G.G.G.G.G.G.G.G.G.G.G.G.G.G.G.G.G.G.G.G.G.G.G.G.G.G.G.G.G.G.G.G.G.G.G.G.G.G.G.G.G.G.G.G.G.G.G.x.I G X X X X ",
"        ) I ..$.G.G.G.G.G.G.G.G.G.G.G.G.G.G.G.G.G.G.G.G.G.G.G.G.G.G.G.G.G.G.G.G.G.G.G.G.G.G.G.G.G.G.G.G.G.G.G.G.G.x.I G X X X X ",
"X X     ) I X.&.G.G.G.G.G.G.G.G.G.G.G.G.G.G.G.G.G.G.G.G.G.G.G.G.G.G.G.G.G.G.G.G.G.G.G.G.G.G.G.G.G.G.G.G.G.G.G.G.G.x.I J X X X X ",
"X X X   [ I X.*.G.G.G.G.r.v.C.p.G.a.e.j.G.e.e.y.G.G.p.r.N.G.D.p.C.G.G.G.l.j.G.y.e.M.G.G.M.y.e.l.G.a.e.e.l.G.G.G.G.x.I Y X       ",
"X X X   { I X.*.G.G.G.G.Z g.n.Z g.y 5.B l.% 7.A a.p.Z <.>.G.G.O k.G.G.G.s.e.e.o.8.h G.G.g.d 5.d n.D D 5.j.G.G.G.G.x.I P X   X   ",
"X X X   { I X.*.G.G.G.G.Z q.p.S g.D G.9.j.& l.r.e.e.d.D.v.G.-.o m G.G.G.a.e.O.g.G.O G.G.g.O.G.D n.D e.j.G.G.G.G.G.x.I J     X X ",
"X X X X } T X.*.G.G.G.G.B D 2.D g.D G.8.j.% m n w.e.f.G.G.G.m e.o G.G.G.p.e.D d.G.@ G.G.g.o.G.D n.D >.0.G.G.G.G.G.x.I P     X X ",
"    X X ] T X.*.G.G.G.G.c g.n.D g.D Z.Z j.& v.j.D e.d.C.p.z.p D O g.t.B.u.e.D p.D.O G.G.g.,.G.S n.D p.M.C.G.G.G.G.x.I P     X X ",
"    X X ' T X.*.G.G.G.G.M h.n.N M.n # n N.* M.v.>.l.; ; y.g.N l.5.d.t.V t N.l.+ @ 7.G.G.g.@ O >.Z.D & y f.G.G.G.G.x.I G X X X X ",
"    X X ' T X.*.G.G.G.G.Z.D.G.Z.G.S.Z.S.G.Z.G.G.D.G.Z.Z.G.D.Z.G.G.G.G.D.Z.G.G.Z.Z.D.G.G.D.Z.Z.G.G.D.Z.D.G.G.G.G.G.x.I J   X     ",
"    X X ' T X.*.G.G.G.G.G.G.G.G.G.G.G.G.G.G.G.G.G.G.G.G.G.G.G.G.G.G.G.G.G.G.G.G.G.G.G.G.G.G.G.G.G.G.G.G.G.G.G.G.G.x.I J X X X X ",
"  X X X [ T X.*.l.p.D.G.8.v.M.e.r.v.v.p.G.l.a.r.e.r.e.g.e.e.r.v.e.C.G.9.z.G.z.w.G.a.j.G.v.p.G.9.5.d.S.r.e.e.N.G.G.x.I U X X X X ",
"  X X X ' T X.*.u.O g.q.O g.N q.r.; g.d v.h.8.a.7.N e.y.D p.p.g.O e.d.O g.G.g.% G.a.Z Z.m u.e.m 7.j g.t ,.>.S G.G.x.I J X X X X ",
"X X X X H T X.*.u.@ N d o g.6 j.n.& g.@ D g.q.G.g.e.G.u.,.g.N.g.o g j o d.M.j Z r.Z.>.5.A V.e.r.G.D g.Z a.a.N G.G.x.I J X X X X ",
"X X X X / I X.*.u.D N D S g.* j.n.* g.n <.@ w.G.g.e.G.u.N 0.v.g.Z 0.# 8.p.v.o a.1.G.l.O g.G.e.r.G.D j.g D 2.,.G.G.c.I J X X X X ",
"    X X [ I X.*.i.D D >.D g.% p.j.6 g.Z N.$ q.G.d.e.G.u.6.n.m.g.V ,.r 8.r.a.O 6 c B.C.O v.G.e.q.C.Z k.g k.C.@ G.G.b.I J X X   X ",
"    X X ( I X.*.p.O.Z.Z.D g.a.O O r.g.S G.p.q.G.p.q.G.s.; # + j.g D.D.0.e.e.p.N.r M.N.o v.G.v.n & >.C.7 j.D.@ G.G.x.I G X X   X ",
"X X X X ) I X.*.D.D.G.G.D.G.G.Z.Z.G.D.Z.G.D.D.G.D.D.G.D.Z.Z.Z.G.Z.G.G.D.G.S.D.G.D.G.G.A.G.G.G.Z.Z.D.G.Z.G.G.A.G.G.c.I G     X X ",
"X X X X ' I X.*.G.G.G.G.G.G.G.G.G.G.G.G.G.G.G.G.G.G.G.G.G.G.G.G.G.G.G.G.G.G.G.G.G.G.G.G.G.G.G.G.G.G.G.G.G.G.G.G.G.x.I G     X X ",
"X X X   ' T X.%.G.G.G.G.D.G.D.D.D.D.D.D.G.G.G.G.G.D.G.G.G.D.G.D.G.G.G.G.G.G.D.G.D.D.G.G.G.D.G.G.G.G.G.G.G.D.D.G.G.x.I G     X X ",
"X X     u w G P L F L P P P P P L P L P L L P P P P L L L L K L L L L L L L L L L F F L G F L L P P L L G L G L L ' k e     X X ",
"  X X       } | { P P P Q Q Q Q ^ P P P P ~ ~ W P E P P P P P ~ W P P P P P P P P P P G P P G R W Q Q E G G G G G / X X X X     ",
"    X X     X X X   X X 8 3 a a 2         X X X X X X X X     X X X X     X X X   X X X X X X # - a a 5           X X X X X     ",
"X   X X X X X X X X     8 3 a a 2   X X X X X X X X X X X X X X X         X X         X X X X $ - a a 5 X X X X   X X X X X     ",
"X X X X X X X X X X X   q z ;.C s   X X X X X     X X X X X X         X X X X             X X - 9 :.=.l X X X X X X X X     X X ",
"    X X X X X X X X X   q v 3.=.f     X X X X X   X X X X X X X X     X X X X X X X X X X   X - 0 4.;.x   X X X X X     X X     ",
"    X X X X X X X   X X q v 3.=.f       X   X X X     X X X X X X X X X X X X X X X X X X     - 0 4.;.x     X X X X     X X     ",
"      X     X X X       q v 3.=.f X X X X   X X X X X     X X X X X X X X X   X X X X X X X   - 0 4.;.x         X X X X X X     ",
"X X         X X X       q b 3.=.f X X X X     X X X X     X X   X X X X X         X X X X X X - 0 4.;.x           X X X X X     ",
"X X X X     X X X X X X q v 3.=.f X X X X X X X X X X X   X X     X X X X X X   X X X X X X X - 0 4.;.x         X X X X X X     ",
"X X X X X       X X X X q b 3.=.f X     X X X X X     X X X X         X X X X X X     X X X   - 0 4.;.x     X X X X         X X ",
"X   X X X X X X X X X X q v 3.=.f         X X X X X X X X X X           X X X X X X   X X X   - 0 3.;.x   X X X X X X X   X X X ",
"        X X X X X     X q v 3.=.f     X       X X X X     X X X X         X X X X X           - 0 4.;.x   X X X     X X X X X X ",
"X X     X X X X X     X q b 3.=.f     X X       X X X     X X X X X X     X X X X X X       X - 0 4.;.x   X X X     X X X X X X ",
"X X X X X         X X X q v 3.=.f X X X X X       X X X X X X     X X X X         X X X X X X - 0 3.;.x     X X     X X     X X ",
"X X X X X     X X X X X q v 3.=.f X X X X X X     X X X X X X     X X X X         X X X X X X - 0 4.;.x     X X X X         X X ",
"X X X X     X X X X X X q v 3.=.f X X X X X X                         X X X X         X X X X - 0 4.;.x X X X X X X       X     ",
"X X X X     X X X X X X i b 3.=.f X X X X X X X X                     X X X X X     X X X X X 4 0 3.;.x X X X X X X     X X     ",
"    X X X X     X X     q l ;.C f         X X X X     X X X X       X X X       X X X     X X - 9 ;.=.z     X X     X X X X X X ",
"    X X X X     X X     ; ; t i 6         X X X X     X X X X       X X X       X X X     X X % = i i 8             X X X X X X ",
"    X X X X X               X X X X X X X   X     X X X X     X X X X         X X X     X         X X X X       X X     X X X X ",
"    X X X X X X             X X X X X X X X       X X X X     X X X X       X X X X     X       X X X X X X     X X     X X X X ",
"X X     X X     X X X           X X X X X X X         X X X X     X X     X X X   X X X X X   X X X X X   X X X X X X X         ",
"X X     X X X   X X X         X X X X X X X X X X     X X X X     X X     X X X   X X X X X   X X X X X     X X X X X X         ",
"X X X         X X X X X X X X X X     X     X X X X X           X X X X X       X     X X X     X X X     X X X X X   X X X X X ",
"X X X       X X X X X X X X X X       X X   X X X X X         X X X X X X       X     X X X     X X X X X X X X X X   X X X X X ",
"X X     X X X X       X X X X X X         X X X X         X X     X X X X X X     X X X X X X X X X X           X X     X X     ",
"X X     X X X X       X X X X X X X X     X X X X         X X     X X X X X X     X X X X X X X X X X           X X     X X   X ",
"X X X X X X X X X X     X X X   X X X X         X X X     X X X X     X X X X X       X X X X X X     X X X X     X X X X X X X ",
"    X X X X X X X X       X     X X X X         X X X     X X X X       X X X X X           X X       X X X X     X X X X X X X "
};
