/* XPM */
static char * wall1_xpm[] = {
"64 64 686 2",
"  	c #121E15",
". 	c #111D14",
"+ 	c #131F15",
"@ 	c #121F15",
"# 	c #121D15",
"$ 	c #111E14",
"% 	c #101D13",
"& 	c #121E14",
"* 	c #121E16",
"= 	c #111E15",
"- 	c #111F15",
"; 	c #132215",
"> 	c #152416",
", 	c #162416",
"' 	c #152316",
") 	c #142215",
"! 	c #142315",
"~ 	c #152317",
"{ 	c #162418",
"] 	c #142216",
"^ 	c #142116",
"/ 	c #132315",
"( 	c #132115",
"_ 	c #142317",
": 	c #142316",
"< 	c #152315",
"[ 	c #152216",
"} 	c #152215",
"| 	c #152417",
"1 	c #122016",
"2 	c #132116",
"3 	c #132015",
"4 	c #101E13",
"5 	c #131E14",
"6 	c #121F14",
"7 	c #131F16",
"8 	c #111D15",
"9 	c #111D16",
"0 	c #142417",
"a 	c #132316",
"b 	c #142114",
"c 	c #132114",
"d 	c #142217",
"e 	c #132016",
"f 	c #122015",
"g 	c #122116",
"h 	c #142115",
"i 	c #111F13",
"j 	c #111F14",
"k 	c #121F16",
"l 	c #131E15",
"m 	c #121D13",
"n 	c #101E14",
"o 	c #101E15",
"p 	c #162417",
"q 	c #132216",
"r 	c #111F16",
"s 	c #122014",
"t 	c #131F14",
"u 	c #101C13",
"v 	c #111C14",
"w 	c #121C13",
"x 	c #111C13",
"y 	c #142117",
"z 	c #142314",
"A 	c #152517",
"B 	c #142015",
"C 	c #122115",
"D 	c #111E13",
"E 	c #132317",
"F 	c #152115",
"G 	c #132014",
"H 	c #162516",
"I 	c #101D14",
"J 	c #162316",
"K 	c #172518",
"L 	c #122114",
"M 	c #142016",
"N 	c #132017",
"O 	c #101D15",
"P 	c #122117",
"Q 	c #152217",
"R 	c #152418",
"S 	c #162317",
"T 	c #111D13",
"U 	c #121D14",
"V 	c #131D15",
"W 	c #152116",
"X 	c #15241A",
"Y 	c #162628",
"Z 	c #162729",
"` 	c #182B2C",
" .	c #172929",
"..	c #16241A",
"+.	c #15251B",
"@.	c #16282C",
"#.	c #17292E",
"$.	c #192D32",
"%.	c #172B2E",
"&.	c #14221B",
"*.	c #101D16",
"=.	c #111E16",
"-.	c #122215",
";.	c #15262B",
">.	c #192B2F",
",.	c #2F4B46",
"'.	c #2B4540",
").	c #182920",
"!.	c #152318",
"~.	c #162517",
"{.	c #142214",
"].	c #142219",
"^.	c #14262A",
"/.	c #1A2E30",
"(.	c #385951",
"_.	c #36554D",
":.	c #1C2E23",
"<.	c #132119",
"[.	c #142423",
"}.	c #1C3234",
"|.	c #1D3336",
"1.	c #2E4B48",
"2.	c #2D4845",
"3.	c #1C3030",
"4.	c #182A2A",
"5.	c #152516",
"6.	c #142416",
"7.	c #0F1C14",
"8.	c #112014",
"9.	c #13211A",
"0.	c #15282D",
"a.	c #182C30",
"b.	c #20393C",
"c.	c #1F373B",
"d.	c #233D40",
"e.	c #213A3D",
"f.	c #1D3538",
"g.	c #1B3236",
"h.	c #15251E",
"i.	c #162518",
"j.	c #101C14",
"k.	c #15262A",
"l.	c #172B2F",
"m.	c #1F383B",
"n.	c #1F3739",
"o.	c #304D49",
"p.	c #2B4745",
"q.	c #1F3639",
"r.	c #1C3235",
"s.	c #132117",
"t.	c #14231A",
"u.	c #172B30",
"v.	c #20393A",
"w.	c #3B5C54",
"x.	c #35544E",
"y.	c #1A2F34",
"z.	c #15251D",
"A.	c #162617",
"B.	c #132217",
"C.	c #152518",
"D.	c #16261B",
"E.	c #162926",
"F.	c #182B2B",
"G.	c #1C3136",
"H.	c #1E3539",
"I.	c #213B3F",
"J.	c #20383B",
"K.	c #314E4B",
"L.	c #2F4D49",
"M.	c #34534E",
"N.	c #324F4B",
"O.	c #1E3431",
"P.	c #182B29",
"Q.	c #15251C",
"R.	c #112015",
"S.	c #122214",
"T.	c #14241D",
"U.	c #172A2F",
"V.	c #182D32",
"W.	c #1D3337",
"X.	c #1E363A",
"Y.	c #233C3E",
"Z.	c #3B5C55",
"`.	c #21393A",
" +	c #192F34",
".+	c #15251F",
"++	c #13201C",
"@+	c #172828",
"#+	c #192C2D",
"$+	c #1D3437",
"%+	c #1D3539",
"&+	c #1F373A",
"*+	c #223B3E",
"=+	c #1F383A",
"-+	c #2F4C48",
";+	c #2F4C49",
">+	c #395A53",
",+	c #3C5D55",
"'+	c #2E4B47",
")+	c #2C4845",
"!+	c #1D3231",
"~+	c #142525",
"{+	c #13201A",
"]+	c #142322",
"^+	c #1C3237",
"/+	c #233E41",
"(+	c #243F41",
"_+	c #223D3F",
":+	c #2A4545",
"<+	c #284342",
"[+	c #3F6359",
"}+	c #3E6158",
"|+	c #41655B",
"1+	c #45695E",
"2+	c #3E6057",
"3+	c #3C5E57",
"4+	c #2A4543",
"5+	c #1F3637",
"6+	c #152420",
"7+	c #132321",
"8+	c #162829",
"9+	c #1C3337",
"0+	c #223C3E",
"a+	c #274243",
"b+	c #36564F",
"c+	c #314F4A",
"d+	c #41645A",
"e+	c #406259",
"f+	c #44695E",
"g+	c #3E5F56",
"h+	c #3F6259",
"i+	c #2E4A46",
"j+	c #1E3432",
"k+	c #162725",
"l+	c #13201B",
"m+	c #13221F",
"n+	c #162A2F",
"o+	c #192E32",
"p+	c #1B3136",
"q+	c #1A3035",
"r+	c #1C3338",
"s+	c #3C5F56",
"t+	c #3F6258",
"u+	c #395B53",
"v+	c #3A5C54",
"w+	c #253F40",
"x+	c #152623",
"y+	c #121F13",
"z+	c #13211C",
"A+	c #152627",
"B+	c #162A2D",
"C+	c #1A2E33",
"D+	c #304D48",
"E+	c #2D4945",
"F+	c #3F6158",
"G+	c #3C5E56",
"H+	c #33514B",
"I+	c #32504B",
"J+	c #314E49",
"K+	c #2D4A46",
"L+	c #294440",
"M+	c #1F3635",
"N+	c #192D2F",
"O+	c #14231F",
"P+	c #111C15",
"Q+	c #121D16",
"R+	c #142320",
"S+	c #162A30",
"T+	c #162C30",
"U+	c #1B3032",
"V+	c #375750",
"W+	c #1D3335",
"X+	c #15272C",
"Y+	c #15292E",
"Z+	c #132529",
"`+	c #111F1B",
" @	c #141F16",
".@	c #122018",
"+@	c #13231E",
"@@	c #172928",
"#@	c #1A3034",
"$@	c #1B3235",
"%@	c #1E3639",
"&@	c #1E3537",
"*@	c #34524D",
"=@	c #1C3335",
"-@	c #1B3035",
";@	c #1A2F33",
">@	c #1D3438",
",@	c #1A3033",
"'@	c #12211A",
")@	c #142420",
"!@	c #213B3E",
"~@	c #1F383C",
"{@	c #223C3F",
"]@	c #233E40",
"^@	c #254143",
"/@	c #1B3135",
"(@	c #192E33",
"_@	c #254042",
":@	c #254142",
"<@	c #253F41",
"[@	c #162724",
"}@	c #121F18",
"|@	c #152626",
"1@	c #192F33",
"2@	c #223C40",
"3@	c #20393D",
"4@	c #213A3E",
"5@	c #203A3D",
"6@	c #2A4646",
"7@	c #304E4B",
"8@	c #304D4A",
"9@	c #264041",
"0@	c #182A29",
"a@	c #14211D",
"b@	c #132019",
"c@	c #213A3C",
"d@	c #213B3D",
"e@	c #1E373A",
"f@	c #203A3C",
"g@	c #2A4745",
"h@	c #33524D",
"i@	c #1D3436",
"j@	c #172726",
"k@	c #121E13",
"l@	c #122019",
"m@	c #17292A",
"n@	c #1C3438",
"o@	c #223D40",
"p@	c #243F40",
"q@	c #2F4E4A",
"r@	c #2A4643",
"s@	c #2B4846",
"t@	c #233D3F",
"u@	c #2E4C49",
"v@	c #2F4D4A",
"w@	c #284343",
"x@	c #2C4947",
"y@	c #314F4B",
"z@	c #304E4A",
"A@	c #2B4744",
"B@	c #1F3432",
"C@	c #13221D",
"D@	c #182B2A",
"E@	c #1D363A",
"F@	c #294544",
"G@	c #395952",
"H@	c #3B5D54",
"I@	c #35544D",
"J@	c #243E40",
"K@	c #1E3739",
"L@	c #274242",
"M@	c #395B54",
"N@	c #274141",
"O@	c #254040",
"P@	c #385952",
"Q@	c #3C5E55",
"R@	c #385750",
"S@	c #34534D",
"T@	c #284242",
"U@	c #162827",
"V@	c #192E2C",
"W@	c #20383C",
"X@	c #33514D",
"Y@	c #3A5B53",
"Z@	c #3B5D55",
"`@	c #34544E",
" #	c #375851",
".#	c #304E49",
"+#	c #233D3E",
"@#	c #243E3F",
"##	c #365650",
"$#	c #3A5A52",
"%#	c #32514B",
"&#	c #172A29",
"*#	c #152726",
"=#	c #182C31",
"-#	c #2D4948",
";#	c #40635B",
">#	c #40635A",
",#	c #41635A",
"'#	c #243D3F",
")#	c #243D3E",
"!#	c #3E6058",
"~#	c #3D6057",
"{#	c #42665C",
"]#	c #456A5F",
"^#	c #1A2F32",
"/#	c #1B3134",
"(#	c #142523",
"_#	c #101E16",
":#	c #122121",
"<#	c #14272B",
"[#	c #233C3D",
"}#	c #2F4C47",
"|#	c #1C3236",
"1#	c #2E4A47",
"2#	c #3D5F56",
"3#	c #2C4945",
"4#	c #16292E",
"5#	c #162A2E",
"6#	c #274344",
"7#	c #192D33",
"8#	c #172C30",
"9#	c #243D3D",
"0#	c #3D6058",
"a#	c #233B3B",
"b#	c #1A3135",
"c#	c #172B31",
"d#	c #142425",
"e#	c #12211F",
"f#	c #15272B",
"g#	c #12252A",
"h#	c #182B30",
"i#	c #182D31",
"j#	c #2B4644",
"k#	c #1A2E31",
"l#	c #182B2F",
"m#	c #152725",
"n#	c #14272D",
"o#	c #1A2F35",
"p#	c #1B3133",
"q#	c #1D3338",
"r#	c #1B2F34",
"s#	c #162726",
"t#	c #152117",
"u#	c #182C2B",
"v#	c #20393B",
"w#	c #1F393C",
"x#	c #254041",
"y#	c #33524C",
"z#	c #2D4A47",
"A#	c #1B2F2E",
"B#	c #152625",
"C#	c #274345",
"D#	c #243E41",
"E#	c #254043",
"F#	c #284545",
"G#	c #3A5B52",
"H#	c #2B4948",
"I#	c #182A28",
"J#	c #172A27",
"K#	c #1E3638",
"L#	c #274446",
"M#	c #2E4C4B",
"N#	c #385851",
"O#	c #44685E",
"P#	c #2A4849",
"Q#	c #284547",
"R#	c #264143",
"S#	c #314E4D",
"T#	c #3F625A",
"U#	c #2D4B4A",
"V#	c #284445",
"W#	c #31504D",
"X#	c #44685F",
"Y#	c #41645B",
"Z#	c #27413F",
"`#	c #172A28",
" $	c #192B2B",
".$	c #34534C",
"+$	c #385850",
"@$	c #253F42",
"#$	c #395951",
"$$	c #3B5D56",
"%$	c #284444",
"&$	c #375650",
"*$	c #3F6157",
"=$	c #3D5E56",
"-$	c #264140",
";$	c #0F1D12",
">$	c #13211B",
",$	c #264141",
"'$	c #35554F",
")$	c #32514D",
"!$	c #264344",
"~$	c #264243",
"{$	c #36554F",
"]$	c #304C47",
"^$	c #34524C",
"/$	c #33514C",
"($	c #223834",
"_$	c #12201B",
":$	c #112115",
"<$	c #142524",
"[$	c #21393B",
"}$	c #3F635A",
"|$	c #213C3F",
"1$	c #2B4747",
"2$	c #203738",
"3$	c #203838",
"4$	c #203839",
"5$	c #223A3C",
"6$	c #21383A",
"7$	c #192B29",
"8$	c #121F1A",
"9$	c #13231F",
"0$	c #142628",
"a$	c #1B3336",
"b$	c #274142",
"c$	c #385852",
"d$	c #203739",
"e$	c #365751",
"f$	c #35534D",
"g$	c #375751",
"h$	c #294545",
"i$	c #16292A",
"j$	c #142421",
"k$	c #12201A",
"l$	c #142624",
"m$	c #162B30",
"n$	c #172D31",
"o$	c #2B4848",
"p$	c #213839",
"q$	c #192C31",
"r$	c #182E32",
"s$	c #233D41",
"t$	c #294546",
"u$	c #2A4747",
"v$	c #223A3A",
"w$	c #253D3D",
"x$	c #264040",
"y$	c #152826",
"z$	c #12211E",
"A$	c #152628",
"B$	c #264144",
"C$	c #243F42",
"D$	c #162A2B",
"E$	c #13221E",
"F$	c #132423",
"G$	c #172C31",
"H$	c #13272B",
"I$	c #15292D",
"J$	c #1C3135",
"K$	c #244042",
"L$	c #233C3F",
"M$	c #182D30",
"N$	c #223B3D",
"O$	c #1C3336",
"P$	c #2C4744",
"Q$	c #1E3333",
"R$	c #152522",
"S$	c #111B14",
"T$	c #162723",
"U$	c #1B3233",
"V$	c #264244",
"W$	c #284446",
"X$	c #254144",
"Y$	c #2F4E4B",
"Z$	c #2C4948",
"`$	c #274241",
" %	c #1D3435",
".%	c #172925",
"+%	c #162825",
"@%	c #223B3F",
"#%	c #294648",
"$%	c #274346",
"%%	c #264245",
"&%	c #264345",
"*%	c #2C4949",
"=%	c #2E4B49",
"-%	c #294647",
";%	c #304F4B",
">%	c #304E4C",
",%	c #1D3537",
"'%	c #1C3132",
")%	c #21393D",
"!%	c #1E373B",
"~%	c #1E363B",
"{%	c #1C3034",
"]%	c #244043",
"^%	c #1A3031",
"/%	c #141F15",
"(%	c #182A27",
"_%	c #1B2E2E",
":%	c #1A2D2E",
"<%	c #192D2E",
"[%	c #172A2B",
"}%	c #162627",
"|%	c #182B2E",
"1%	c #1C3437",
"2%	c #1E3538",
"3%	c #1C3130",
"4%	c #1D3232",
"5%	c #212F32",
"6%	c #212F31",
"7%	c #1A2F2E",
"8%	c #1C3131",
"9%	c #1C3232",
"0%	c #1A2F2F",
"a%	c #1A2E2F",
"b%	c #1B2F30",
"c%	c #12201D",
"d%	c #162A2C",
"e%	c #14262B",
"f%	c #17292C",
"g%	c #111E19",
"h%	c #192A2D",
"i%	c #1C2D31",
"j%	c #1C2E32",
"k%	c #1C2B2F",
"l%	c #2C3637",
"m%	c #2B3434",
"n%	c #293130",
"o%	c #262D2D",
"p%	c #16211A",
"q%	c #16272A",
"r%	c #172A2E",
"s%	c #15272A",
"t%	c #12221D",
"u%	c #13221C",
"v%	c #132223",
"w%	c #132323",
"x%	c #142527",
"y%	c #1F2B2C",
"z%	c #212D2F",
"A%	c #233031",
"B%	c #252F2F",
"C%	c #44443E",
"D%	c #40403B",
"E%	c #2D3332",
"F%	c #262F2E",
"G%	c #17211B",
"H%	c #142321",
"I%	c #142426",
"J%	c #15221A",
"K%	c #212A28",
"L%	c #232C2C",
"M%	c #272F2F",
"N%	c #2A2F2D",
"O%	c #4D4940",
"P%	c #48453C",
"Q%	c #2E3331",
"R%	c #262E2D",
"S%	c #18211B",
"T%	c #172418",
"U%	c #162216",
"V%	c #162219",
"W%	c #242C2C",
"X%	c #2B302E",
"Y%	c #4F4A41",
"Z%	c #4A463E",
"`%	c #2F3432",
" &	c #17231B",
".&	c #162318",
"+&	c #18241D",
"@&	c #1B2621",
"#&	c #222A2A",
"$&	c #272E2D",
"%&	c #343633",
"&&	c #343632",
"*&	c #4B473F",
"=&	c #373935",
"-&	c #313532",
";&	c #1F2822",
">&	c #17221C",
",&	c #232B2B",
"'&	c #262E2E",
")&	c #4D4840",
"!&	c #49463D",
"~&	c #554F45",
"{&	c #544E44",
"]&	c #4D4941",
"^&	c #48453E",
"/&	c #2D322F",
"(&	c #1C2722",
"_&	c #142018",
":&	c #152218",
"<&	c #162217",
"[&	c #131E16",
"}&	c #17221B",
"|&	c #232B2A",
"1&	c #202927",
"2&	c #2B302C",
"3&	c #4D483D",
"4&	c #47443A",
"5&	c #4B473D",
"6&	c #4C473D",
"7&	c #46433A",
"8&	c #2A2F2B",
"9&	c #152616",
"0&	c #172417",
"a&	c #172517",
"b&	c #172618",
"c&	c #122216",
"  . + @ # $ %   . & * & $ = - - ; > , ' ) ! ) ~ { ] ^ ) / ) ] ( ] _ ( ( ( ] : < ) [ ~ ' ] : ' } ^ | _   1 ^ 2 2 3 4 -   . 5 5 6 ",
"    3 7 $ @ @ + & = + 7 * 8 9 @ ' > ; 3 ] | ] [ ~ ; ] ' 0 : ~ } ) a b c 2 ] ] : d ] ' | | | ] ) ' : 2 e ( f g ^ h i & j   @   1 ",
"% 8 * k &   k l m n o j $ 8 8 f ' p ] 2 ] ~ ] : ( ) 2 2 ~ ' } ] ) _ ) 3 ^ ( ] _ : q | { ~ ] ] 0 : ! g r 3 s @ e + t s e + 6 7 e ",
"u 8     . $ j + & 6 = n v w x $ ( ^ y _ _ 3 3 ] d d 1 e ( ) ! ( z ~ q @ 6 q ' : A 0 d ] 3 e ^ ] a : d @ @ - $ 3 @ e ^ B 3 ( 2 C ",
"$ - 1 1 . % n 6 & D & & $ $ . @ E _ f 2 ] ( ] [ F d 2 + s ( ] G b H / C ( g [ [ ! | ' ' ~ _ h 2 ] ' a - = +   @ @ 3 ^ s + 3 @ $ ",
"    + j I I $ = . $ @ f - $ $ @ < ~ d _ ' ) J ' ^ ^ [ c ( ] h 3 ' K _ _ L j ( ] | ' < ' | | > ' | A ]   @ M + 3 N C @ j . $ $ I ",
"@ $ 8 I O j 6 . & k P e t & n j ) ' : ~ ~ ' ~ < : : ' ^ ) Q d [ p p R R ^ f [ S ' ] ] ] ' > > ' > A ] T 6 + + G h G j @ $ - 6   ",
"+ = U m   3 6 6 +   @   V = O . c > ~ ] ) ^ W ^ ] ~ J [ ' X Y Z `  ...{ d C ' p ] 3 s 2 ] ] ' ' ( ( q 3 3 @ j L ( f   * - 3 B @ ",
"+ * $ & = + 5 @ k   U I O = = = ( _ d ( c s 3 ) h ] ' ~ | +.@.#.$.%.&.Q ] ! > | : ^ ( : : h ^ ] ) ! ] ^ ( f f ( ( C @ = 4 3 t + ",
"@ *   8 *.= # @ =.. & . n 4 T t ' | ; L -.; h h ( ] ( ^ q X ;.>.,.'.).p p ' a : ] [ ~ { !.) q : ' > : 2 s 1 2 3 f f @ = 6 @ $ & ",
"& = 6 $ = O 8 @ @   @ @ j $ T & ~ ~.{.q d _ ] ; q ) C 2 2 ].^./.(._.:.| d ] ^ > > ' ' S p ' [ ~ | ' ] 1   @ f @ f @ & $   6 j j ",
"n I .       $ s 6 @ k @ =.= $ @ S p ; q _ ~ : ; ; q C <.[.Z }.|.1.2.3.4.&.2 ^ ' 5.| : _ ~ ' ] : 6.> : f $ j -   f   6 @ @ @ 6 s ",
"= 7.7.= = @ s 6 6 + @       6 ( : ] G ( q ] : 2 ( -.8.9.0.a.b.c.d.e.f.g.h.2 ( ( ] > ' | ~ ^ ( ! p i._ f 6 - - + 1   j @ 3 e f f ",
"@ j.. n O - f @ & 6   & &   & @ 2 ^ ( 2 ; ) ] 2 ] ! ; &.k.l.m.n.o.p.q.r.h.^ ( ( h H > [ ~ ^ 3 ) > ~.: 6 6 f k e e $ D 6 @ + @ - ",
"f   l - = = $   - @   $ 6 & I j.e d s.2 ; > ~ h ' > > t.^.u.c.v.w.x.n.y.z.( q ) ) > > ] ) ] ( ; > A.> & l e f ] B.- $ 3 @ = - & ",
"= = @ 2 - = @ k k @ @ @ 3 + .   ~ C.!.~ 6.A ~.: > D.E.F.G.H.I.J.K.L.M.N.O.P.Q.' > ~.~.: : > ! : ~ | | f e e 3 [ d k 1 2 R.= f 6 ",
"I j.- f = - 1 k   & @ k 7 3 = 1 6.| ~ d C S.a 2 q T.U.V.H.b.e.W.X.Y.w.Z.`. +.+; ' p ^ 2 ] ^ h ] g C q 2 2 ( 3 e y f e ] f + 3 6 ",
"= . - $ I I = 8 = $ @ @   6 & = - +   = I T . ++@+#+$+%+&+b.*+=+-+;+>+,+'+)+!+~+{+  =   k $ & @ I % f 3 ( C 3 @ e f @ ( + 3 f + ",
"+ +   $ n 8 8 U   @ = k @   U . =   v .     8 ]+^+X./+(+_+(+:+<+[+}+|+1+2+3+4+5+6+j.O =   &     j.I f ( 3 2 2 ( h 6 - f   @ - f ",
"= = = = 6   # $ $ @ = = 7 @ $ U     . . @ {+7+8+g.9+b.e.0+a+b+c+d+e+|+f+g+h+x.i+j+k+l+=   l 7 @ $   e ( G 3 2 e B 3 3 f + 6 6 @ ",
"I I I   @ 6 U 8 .       e @ . # # = 8 $ = m+n+o+p+y.q+r+b.a+s+b+d+t+}+|+u+h+v+x.w+^+x+# # &   @ 6 @ ( ] ( ( ] ^ 2 y 3 y+t M e 3 ",
"I $ . = @ @ U . =   $ & + l U # & = 8 $   z+A+B+q+V.V.C+p+J.D+E+F+G+H+I+E+J+K+L+M+N+O+8 P+$ =   @ @ 3 2 e 2 d ] ^ [ 3 . $ 1 e 2 ",
"@ - $ 8 l j . I     . u O Q+#   & . 8 . # *   R+V.n+S+S+0.n+T+U+w.V+W+u.X+u.Y+Z+`+= n I I U & = =   e 2 e f f 1 2 ] 6 . $ 8.6 2 ",
" @f @   . $ % 8   . j.j.I # @   v I I 8 8 .@+@@@r+#@g.9+$@9+%@&@*@o.=@-@;@>@g.,@ .x+'@n . U & = I $ f ( ( e f 7 ( 2 8.@ s s $ 3 ",
"$ 7 +   8   &     . 8   @ @ l &     . . . )@a.9+!@~@!@{@*+]@^@b./@(@;@%@~@_@:@<@*+%@[@  . .   = j.j.- @ @ e ^ ( c ( 3 ^ ( ( ( e ",
"@     $ o = * + & = 8   = = U 8 = l # }@++|@1@f.2@3@3@4@5@{@(+5@c.f.H.e.b.6@7@8@9@&+0@a@b@I = @ = #   6 @ 3 y 1 3 c + 3 f s ( C ",
"j - . I $ # $ f - $ $   8 n   # =   = [.;@-@#@f.!@b.c@d@&+c@b.f.b.e@f@0+e@g@h@h@<+c@i@r.j@8 . k@U   7 f @ 3 ] 3 h ( f j = j 6 8.",
"o =.n f = $   @ = - =.  . n - @ # l@+@m@%@&+n@c.o@p@L.q@r@s@o@&+{@t@u@v@0+w@x@;+y@z@A@4+B@C@b@+   @ 1 e M ^ q f 3 ^ 2 @ + s - j ",
"= - f e   - R.= $   = # $     # . D@E@f.{@{@%@3@:@F@G@H@I@b+J@K@J@L@>+M@N@p@f@O@P@Q@R@S@T@n@U@@ @ = R.L q s.C G 3 s.2   j 2 2 3 ",
"6 f - .   j 6   =   @ & $ - @ # I V@W@m.d.d.H.w+X@h@Y@Z@`@ #]@v.c+c+v+G+.#L.+#@###$#_.%#w@e@&#$   @ 3 ( @ r - 3 ) 2 2 j @ 2 1 h ",
"U = 6 n I - @   = & @ @ $ .   = O *#$.=#q+>@J.-#;#>#,#F+'#(+_@)#!#~#{#]#Q@Z@:+!@q.|.^#/#p+C+(#$ $ o f 3 3 f + g q R.@ G f + R.G ",
". @ 5 $ n = $ D $ 8 n o . % n = 8 _#:#<#=#(@(@[#X@I+}#i+|#9+%@=@1#.#2#}+}#3#v.9+9+p+U.4#5#]+* - 8 8 e ] [ 3 @ 1 f $ @ h 2 2 6 + ",
"= & . o @ 6 8 $ = = $ T & = .   @   9 ~+1@(@n+9+6#J@$@/@=#7#q+8#|#9#h+0#a#g.(@b#4@5@y.c#d#r   P+j.j.@ > < 3 3 2 ( S.q 3 6 3 3 B ",
". O   T # = I $ j @ - =     $ o = = e#f#8#u.g#5#%+g.4#l.(@q+|#h#i#}.E+j#k#i#o+1@f.%+o+=#l#]+9 o I x 5 ) q 1 3 -.( 2 Q y e s - 6 ",
"  . 8 j.& 8 . T I   = o = $ &   r m#h#u.q+ +n#n+o#1@8#(@H.3@!@g. +V.p#r.u./@n@X.e.*+%@f.q#r#s#  u I k c j = j R.f ; t#t#3 2 e 7 ",
"f @ $   @ .   = . . I 8 v . @ @ u#%@|#g.~@m./@f.d@v#&+J.m.{@{@e@v#f.#@n@9+3@w#x#y#b+J+z#x#c.f@A#. I R.( s + f @ - C s.e M q f 6 ",
"- 7 @ e e @ - k 6 $ . 8 I = @ B#$@X.%+%+{@d.v#t@C#_@d.d.0+/+D#e./+!@9+c.d@E#o@F#Z@h+G###H#_+]@c@I##   c c h ( e e ( ( f h e h h ",
"    k @ k @ = @ 6 - = 8 k 1 J#K#(+^@d.J@L#M#N#h+O#Z.C#H#w.!#P#^@Q#C#R#S#,+T#U#V#W#>+2+1+X#e+Y#Y@Z#`#& 6 3 2 2 e C 1 f 6 G q ] 3 ",
"= @ $ 6 - &   + $   # I . @  $&+t@]@f@b.D#6@.$G+{#G@t@w@+$Y@C#*+@$]@t@v@#$$$%$0+@$u@&$*$,#=$}+P@-$` 8 3 ( q g 3 f f 6 6 k 2 ; 6 ",
"o # .       &     + = ;$I 8 >$#+q.b.f.>@3@,$K+'$>#2#x.'$8@)$!${@R#~$M.,+Y@h+{$z@V#6@]$^$x./$h@D+($_$= 2 C :$2 ] 1 @ + @   2 6 = ",
"8 & @ 7   - = = = k @ . 8 v v <$o+y.u.l.1@$+[$z#}$h+2#G+,$%$R#|$_@%$Z@{#G+{#2#P@1$d.2$3$`.4$5$6$7$= - C f j 3 } 2 3 B ( f 3 3 @ ",
"  & 2  @= $ @ = # & 6 # v . j.8$9$0$0.5#g.f.a$b$c$N#I@*@d$J.c@&+(+R#e$$$f$#$g$M.h$0+9+9+r+ +i$j$k$j f 3 3 3 ( ] 2 3 e 3 @ @ s @ ",
"-   3 + 6 & & @   $ $ = 8 n $ . $ l$m$n$m.!@%+t@o$%$`.p$l#q$$.r$s$/+t$u$v$w$x$9@{@!@m.b.3@n@y$T % $ - @ + 3 q B.q 3   t 6 @ + 1 ",
"@ k 7 + @ + + @ @   -   = I o z$A$^#%@b.B$C$/@g.c.c.e.e.|#-@u.0.>@$+>@%+u.|#!@D#E#:@t@C$E#d@r.D$E$6 - e + 3 C 2 ] + U 6 3 1 f 3 ",
"=   @     e   @     * = $ . . F$U.|#&+e._@{@l.4#V./@t@d.%@9+G$H$8#n+l.n$I$J$e.]@K$(+c@L$D#e.%@1@<$j k e e f 3 s f +   @ e 2 g f ",
"I . &   @ - . =     8 P+= = )@M$9+H.%@&+t@*+/#9+&+e@e.N$%@%+H.,@K#O$$+%@/@&+b.c@{@w@)+K+9@+#'+P$Q$R$@ e e 3 3 t - j @ f B + f @ ",
"$ $ $ 6 + 6 & = * =.v S$8 T$U$W@d.d.e.*+V$V$*+(+W$X$^@^@{@D#B$*+R#(+(+_@e.K$C$(+V$Y$&$N#Z$F@Y@G@`$ %.%3 3 3 @ 3 3 f s f B + @ = ",
"- $ $ @     @ @ = = . . +%i@&+5@@%W@>@q.^@L#_+E##%$%V$%%D#^@&%d.C#C$3@5@>@*+C$^@L#*%=%7@-%~$;%>%x#b.,%.%G 3 2 ( ( 3 f f 3 f @ & ",
"    * @ @ @ k j n n $   '%)%m.!%~%p+a.;@{@C$b.{@V$C$d.D#4@o@(+e.C$e.J${%h#W.e._+E#]%4@{@d.e.2@d.3@b.b.^%G 3 ] h s 3 C s 2 1 f @ ",
"/% @e 3 f k @ j k@U & t (%3._%:%<%[%}%|%%+X./@1%m.2%3%4%|#%+%@g.X.|#5%6%@+F.J$>@c.~@n@q#}.7%8%9%0%a%b%(%2 1 2 h f 6 f @ 2 ^ l @ ",
"  k @ @ e f - @ + l + 5 & & #   = 8 v c%d%u.e%0.u.f%= g%h%i%j%k%l%m%n%o%p%@ q%r%=#V.4#s%t%- $ . $   @ e 2 - C g f 6 j @ 2 ^   @ ",
"s - @ f 2 2 @ B ^ 3 q ( @ @ + 3 7 * @ @ u%|@v%w%x%(#n {+y%z%A%B%C%D%E%F%G%k H%d#A+A$I%k$f 6   *   f 1 f 2 f C ; ) h ( B q d @ @ ",
"> : a ; ] ] ^ ' ' ' 6.' { { p ' B 3 3 B h h + l @ - @ J%K%L%M%N%O%P%Q%R%S%- 6 & - = j s s 3 ^ N k f ( f ( ' : ! > < [ : 6.~ ] ^ ",
"R : ] : _ ] ) d 6.: ) h T%i.S U%h + @ 6 t 3 + @ - @ f V%K%W%M%X%Y%Z%`%F% &$ & 6 @ - - 6 6 + e ^ f s b c ( .&i.J ' h ( q [ _ ~ ; ",
"B.C ( ] | Q ( q : _ ] h > | ' ] ^ e @ 5 @ + & - @ s.+&@&#&$&%&&&Y%*&=&-&;&7 6 + & j 7 + @ @ @ G + s c ] | { p p : 2 ( c ) q ~ ' ",
"[ ( h ] Q d C 2 ( q : ] ] ' ' q 1 3 f @ @   & & f >&,&'&W%Q%)&!&~&{&]&^&/&(&_&  = $ @ e 1 - @ + @ @ ) p i.> [ :&] 2 ^ ^ ] ( [ p ",
"~ ) c f f 2 2 : ] ' d d B.] <&d f s ( @ @ [&e f 2 }&K%|&1&2&3&4&5&6&6&7&8&|& &@ @ j f + @ @ 1 @ = k : | _ ; : | > ~ Q Q ' [ 6.p ",
"] 3 ( 3 e B 3 Q ~ ' ] ] ] ; 2 q s 6 f @ @ e 2 2 f e k k f 2 Q B M M y M   6 2 q e @ +   =   f f @ 2 _ _ ] 6.> 9&~.Q ^ ~ ~.i.| [ ",
") ] d 2 y 2 2 d ] [ [ ] ] ] ] ] @ @ @   - r @ f @ 3 @ @ f f + @ 3 R.j f & 6 f 3 @   @ + + + 3 ( 6 j ; ' [ p J ~ d [ h _ | : f 3 ",
"E : ) 2 2 d ] ; 2 ~ p A 0 ] ~ ' 3 @ 1 - @ 1 1 f 3 f 7 3 1 C 3 + G s - @ @ f 7   $ @ 1 ( L @ R.c G - 2 S 0&~.p } B ] B.] [ ( f s.",
": _ | d ] [ ~ ) ] ~ : | ~.p A _ 1 - R.k 3 ( 2 3 2 C j 3 C c @ & $ @ f e ( ( @ 6 f 1 @ f ( g @ y+$ k 2 h J | _ ) 3 p | ; ~ : : Q ",
"[ ~ 0 ] y d : ; : ] ! : a : ) ] t#@ j f 3 1 e k k n = ^ q @ k k R.C +   1 @ 3 3 e + 3 s ( B + 6   l ^ : > p ~ : ; ~.p ] ~ d !.' ",
"d ; / ] ' : ] y d q > : 2 ] ] ^ 1 j 3 3 + e h M 3 j . &  @2 3 h f G   # 7 3 @ e f 6 6 j + @ @ f @ M ' > | | ' W q ~., ] S a&b&b&",
"( [ [ d ~ : C q 2 ] ) ( 6 C ] ^ f 6 @ 6 @ @ f j 3 + . 6 @ f ] ; c&G t 7 e @ @ f k @ & $ j @ @ f R.( > A > _ _ Q ' ) ] ' K b&i.b&"};
